<?xml version="1.0" encoding="UTF-8" standalone="no"?>
<svg
   xmlns:dc="http://purl.org/dc/elements/1.1/"
   xmlns:cc="http://creativecommons.org/ns#"
   xmlns:rdf="http://www.w3.org/1999/02/22-rdf-syntax-ns#"
   xmlns:svg="http://www.w3.org/2000/svg"
   xmlns="http://www.w3.org/2000/svg"
   xmlns:sodipodi="http://sodipodi.sourceforge.net/DTD/sodipodi-0.dtd"
   xmlns:inkscape="http://www.inkscape.org/namespaces/inkscape"
   width="16"
   height="16"
   viewBox="0 0 4.2333333 4.2333333"
   version="1.1"
   id="svg8"
   sodipodi:docname="industrial_partially.svg"
   inkscape:version="1.0 (4035a4f, 2020-05-01)">
  <defs
     id="defs18" />
  <sodipodi:namedview
     inkscape:document-rotation="0"
     pagecolor="#ffffff"
     bordercolor="#666666"
     borderopacity="1"
     objecttolerance="10"
     gridtolerance="10"
     guidetolerance="10"
     inkscape:pageopacity="0"
     inkscape:pageshadow="2"
     inkscape:window-width="1401"
     inkscape:window-height="953"
     id="namedview16"
     showgrid="false"
     inkscape:zoom="22.325524"
     inkscape:cx="9.0165398"
     inkscape:cy="5.8044867"
     inkscape:window-x="1495"
     inkscape:window-y="34"
     inkscape:window-maximized="0"
     inkscape:current-layer="svg8" />
  <metadata
     id="metadata5">
    <rdf:RDF>
      <cc:Work
         rdf:about="">
        <dc:format>image/svg+xml</dc:format>
        <dc:type
           rdf:resource="http://purl.org/dc/dcmitype/StillImage" />
        <dc:title></dc:title>
      </cc:Work>
    </rdf:RDF>
  </metadata>
  <path
     id="path843"
     style="fill:#ffff00;stroke:#000001;stroke-width:0.0518044"
     d="M 4.2036328,2.1166666 A 2.0869663,2.0812066 0 0 1 2.1166666,4.1978731 2.0869663,2.0812066 0 0 1 0.02970028,2.1166666 2.0869663,2.0812066 0 0 1 2.1166666,0.03546 2.0869663,2.0812066 0 0 1 4.2036328,2.1166666 Z" />
  <g
     transform="matrix(0.00446272,0,0,0.00428041,0.68498483,0.66971636)"
     id="surface1">
    <path
       d="M 629.32812,373.33594 H 596.61328 L 575.99609,73.945312 c -0.38672,-5.605468 -5.04687,-9.949218 -10.66797,-9.941406 h -64 c -5.62109,-0.0078 -10.28125,4.335938 -10.66796,9.941406 L 470.04297,373.33594 H 448 v -64 c 0,-5.88672 -4.77734,-10.66797 -10.66406,-10.66797 -2.42969,-0.004 -4.78125,0.82422 -6.67188,2.33984 l -89.33203,71.46485 v -63.13672 c 0,-5.88672 -4.77344,-10.66797 -10.66406,-10.66797 -2.42578,-0.004 -4.77735,0.82422 -6.66797,2.33984 l -89.33203,71.46485 v -63.13672 c 0,-5.88672 -4.77344,-10.66797 -10.66406,-10.66797 -2.42579,-0.004 -4.78125,0.82422 -6.66797,2.33984 l -89.33203,71.46485 v -63.13672 c -0.004,-5.88672 -4.78125,-10.66407 -10.66797,-10.66407 -1.94141,0 -3.83594,0.52735 -5.4961,1.52344 l -106.667965,64 C 1.964844,366.125 0,369.58984 0,373.33594 v 256 C 0,635.22656 4.777344,640 10.667969,640 H 629.32812 c 5.89063,0 10.66797,-4.77344 10.66797,-10.66406 V 384.00391 c 0,-5.89454 -4.77734,-10.66797 -10.66797,-10.66797 z M 511.28906,85.335938 h 44.07813 l 19.86718,288.000002 h -83.8125 z M 362.66016,618.66797 v -128 h 64 v 128 z m 256.0039,0 H 448 V 480 c 0,-5.88672 -4.78125,-10.66406 -10.67188,-10.66406 h -85.33203 c -5.89062,0 -10.66797,4.77734 -10.66797,10.66406 V 618.66797 H 21.332031 V 379.375 l 85.332029,-51.19922 v 66.49219 c 0,5.89453 4.77344,10.66797 10.66407,10.67578 2.42187,0 4.77734,-0.82813 6.67187,-2.34375 l 89.33203,-71.46484 v 63.13281 c 0,5.89453 4.76953,10.66797 10.66406,10.67578 2.42188,0 4.77344,-0.82813 6.66797,-2.33984 l 89.33203,-71.46485 v 63.13281 c 0,5.89063 4.76953,10.67188 10.66407,10.67188 2.42187,0 4.77343,-0.82813 6.66796,-2.33984 l 89.33204,-71.46485 v 52.46485 c 0,5.89453 4.77734,10.66796 10.66796,10.66796 h 181.32813 v 223.9961 z m 0,0"
       style="fill:#000000;fill-opacity:1;fill-rule:nonzero;stroke:none"
       id="path866" />
    <path
       d="m 362.58984,21.339844 c 3.87891,2.078125 7.38282,4.789062 10.3711,8.019531 5.98047,7.292969 14.49609,12.042969 23.83593,13.3125 9.83985,-1.253906 18.82422,-6.210937 25.13282,-13.867187 2.69922,-2.832032 5.71875,-5.335938 9.0039,-7.464844 2.19532,0.09766 7.94532,5.480468 11.03907,8.371094 5.7539,7.121093 14.01953,11.757812 23.08984,12.960937 10.47656,-1.328125 20.05078,-6.582031 26.79687,-14.699219 2.61329,-2.453125 6.57032,-6.175781 7.33594,-6.632812 5.72656,0 7.03906,1.898437 10.5625,6.976562 4.62891,8.746094 13.67578,14.257813 23.57422,14.355469 5.88672,0 10.66406,-4.777344 10.66406,-10.664063 0,-5.894531 -4.77734,-10.667968 -10.66406,-10.667968 -2.13672,0 -2.55078,-0.148438 -6.01562,-5.152344 C 521.65234,6.011719 510.83594,-0.210938 499.19531,0.00390625 490.56641,1.203125 482.71484,5.640625 477.24609,12.421875 c -3.54297,3.339844 -9.48047,8.917969 -11.73437,8.96875 -3.30469,-2 -6.32031,-4.4375 -8.98438,-7.238281 C 450.11328,6.339844 440.95703,1.28125 430.92969,0.00390625 421.68359,1.265625 413.26172,5.976562 407.34375,13.1875 c -2.99219,3.210938 -6.44922,5.957031 -10.25,8.152344 -3.55469,-2.039063 -6.78906,-4.585938 -9.59766,-7.574219 C 381.26172,6.195312 372.38672,1.28125 362.66016,0.00390625 356.77344,-0.015625 351.97656,4.742188 351.95703,10.636719 c -0.0195,5.886719 4.74219,10.683593 10.63281,10.703125 z m 0,0"
       style="fill:#000000;fill-opacity:1;fill-rule:nonzero;stroke:none"
       id="path868" />
    <path
       d="M 117.33594,490.66797 H 74.664062 C 68.773438,490.66797 64,495.44531 64,501.33203 v 64 C 64,571.22656 68.773438,576 74.664062,576 H 117.33594 C 123.22266,576 128,571.22656 128,565.33203 v -64 c 0,-5.88672 -4.77734,-10.66406 -10.66406,-10.66406 z m -10.67188,64 H 85.332031 v -42.66406 h 21.332029 z m 0,0"
       style="fill:#000000;fill-opacity:1;fill-rule:nonzero;stroke:none"
       id="path870" />
    <path
       d="M 202.66797,490.66797 H 160 c -5.89453,0 -10.66797,4.77734 -10.66797,10.66406 v 64 C 149.33203,571.22656 154.10547,576 160,576 h 42.66797 c 5.88672,0 10.66406,-4.77344 10.66406,-10.66797 v -64 c 0,-5.88672 -4.77734,-10.66406 -10.66406,-10.66406 z m -10.67188,64 h -21.33203 v -42.66406 h 21.33203 z m 0,0"
       style="fill:#000000;fill-opacity:1;fill-rule:nonzero;stroke:none"
       id="path872" />
    <path
       d="m 288,490.66797 h -42.66797 c -5.89453,0 -10.66797,4.77734 -10.66797,10.66406 v 64 c 0,5.89453 4.77344,10.66797 10.66797,10.66797 H 288 c 5.88672,0 10.66406,-4.77344 10.66406,-10.66797 v -64 c 0,-5.88672 -4.77734,-10.66406 -10.66406,-10.66406 z m -10.67188,64 h -21.33203 v -42.66406 h 21.33203 z m 0,0"
       style="fill:#000000;fill-opacity:1;fill-rule:nonzero;stroke:none"
       id="path874" />
  </g>
</svg>
