<?xml version="1.0" encoding="UTF-8" standalone="no"?>
<svg
   xmlns:dc="http://purl.org/dc/elements/1.1/"
   xmlns:cc="http://creativecommons.org/ns#"
   xmlns:rdf="http://www.w3.org/1999/02/22-rdf-syntax-ns#"
   xmlns:svg="http://www.w3.org/2000/svg"
   xmlns="http://www.w3.org/2000/svg"
   xmlns:sodipodi="http://sodipodi.sourceforge.net/DTD/sodipodi-0.dtd"
   xmlns:inkscape="http://www.inkscape.org/namespaces/inkscape"
   inkscape:version="1.0 (4035a4f, 2020-05-01)"
   sodipodi:docname="institution.svg"
   id="svg8"
   version="1.1"
   viewBox="0 0 4.2333333 4.2333333"
   height="16"
   width="16">
  <defs
     id="defs18" />
  <sodipodi:namedview
     inkscape:current-layer="svg8"
     inkscape:window-maximized="0"
     inkscape:window-y="23"
     inkscape:window-x="1495"
     inkscape:cy="9.7791374"
     inkscape:cx="7.5442302"
     inkscape:zoom="32.174685"
     showgrid="false"
     id="namedview16"
     inkscape:window-height="953"
     inkscape:window-width="1401"
     inkscape:pageshadow="2"
     inkscape:pageopacity="0"
     guidetolerance="10"
     gridtolerance="10"
     objecttolerance="10"
     borderopacity="1"
     bordercolor="#666666"
     pagecolor="#ffffff"
     inkscape:document-rotation="0" />
  <metadata
     id="metadata5">
    <rdf:RDF>
      <cc:Work
         rdf:about="">
        <dc:format>image/svg+xml</dc:format>
        <dc:type
           rdf:resource="http://purl.org/dc/dcmitype/StillImage" />
        <dc:title></dc:title>
      </cc:Work>
    </rdf:RDF>
  </metadata>
  <path
     d="M 4.2036328,2.1166666 A 2.0869663,2.0812066 0 0 1 2.1166666,4.1978731 2.0869663,2.0812066 0 0 1 0.02970028,2.1166666 2.0869663,2.0812066 0 0 1 2.1166666,0.03546 2.0869663,2.0812066 0 0 1 4.2036328,2.1166666 Z"
     style="fill:#ffffff;stroke:#000001;stroke-width:0.0518044"
     id="path843" />
  <g
     id="g1026"
     transform="matrix(0.00647588,0,0,0.00627322,0.48216089,0.28570409)">
    <path
       id="path989"
       d="m 256,248 a 48,48 0 1 0 -48,-48 48.055,48.055 0 0 0 48,48 z m 0,-80 a 32,32 0 1 1 -32,32 32.036,32.036 0 0 1 32,-32 z" />
    <path
       id="path991"
       d="m 256,208 h 8 a 8,8 0 0 0 0,-16 v -8 a 8,8 0 0 0 -16,0 v 16 a 8,8 0 0 0 8,8 z" />
    <path
       id="path993"
       d="m 320,304 v -32 a 8,8 0 0 0 -8,-8 H 200 a 8,8 0 0 0 -8,8 v 32 a 8,8 0 0 0 8,8 h 112 a 8,8 0 0 0 8,-8 z m -16,-8 h -96 v -16 h 96 z" />
    <path
       id="path995"
       d="m 72,264 h 64 a 8,8 0 0 0 0,-16 v -56 a 8,8 0 0 0 -8,-8 H 80 a 8,8 0 0 0 -8,8 v 56 a 8,8 0 0 0 0,16 z m 16,-64 h 32 v 48 H 88 Z" />
    <path
       id="path997"
       d="m 136,344 v -56 a 8,8 0 0 0 -8,-8 H 80 a 8,8 0 0 0 -8,8 v 56 a 8,8 0 0 0 0,16 h 64 a 8,8 0 0 0 0,-16 z M 88,296 h 32 v 48 H 88 Z" />
    <path
       id="path999"
       d="m 136,440 v -56 a 8,8 0 0 0 -8,-8 H 80 a 8,8 0 0 0 -8,8 v 56 a 8,8 0 0 0 0,16 h 64 a 8,8 0 0 0 0,-16 z M 88,392 h 32 v 48 H 88 Z" />
    <path
       id="path1001"
       d="m 376,264 h 64 a 8,8 0 0 0 0,-16 v -56 a 8,8 0 0 0 -8,-8 h -48 a 8,8 0 0 0 -8,8 v 56 a 8,8 0 0 0 0,16 z m 16,-64 h 32 v 48 h -32 z" />
    <path
       id="path1003"
       d="m 376,360 h 64 a 8,8 0 0 0 0,-16 v -56 a 8,8 0 0 0 -8,-8 h -48 a 8,8 0 0 0 -8,8 v 56 a 8,8 0 0 0 0,16 z m 16,-64 h 32 v 48 h -32 z" />
    <path
       id="path1005"
       d="m 376,456 h 64 a 8,8 0 0 0 0,-16 v -56 a 8,8 0 0 0 -8,-8 h -48 a 8,8 0 0 0 -8,8 v 56 a 8,8 0 0 0 0,16 z m 16,-64 h 32 v 48 h -32 z" />
    <path
       id="path1007"
       d="m 488,160 a 8,8 0 0 0 0,-16 H 346.6 L 264,83.926 V 65.444 l 38.685,6.447 A 8,8 0 0 0 312,64 V 32 a 8,8 0 0 0 -6.685,-7.891 l -48,-8 v 0.008 A 7.954,7.954 0 0 0 248,24 V 83.926 L 165.4,144 H 24 a 8,8 0 0 0 0,16 h 8 v 320 h -8 a 8,8 0 0 0 0,16 h 464 a 8,8 0 0 0 0,-16 h -8 V 160 Z M 248,480 h -32 v -88 a 40.067,40.067 0 0 1 32,-39.195 z M 264,352.805 A 40.067,40.067 0 0 1 296,392 v 88 H 264 Z M 256,336 a 56.064,56.064 0 0 0 -56,56 v 88 H 176 V 156.074 l 80,-58.182 80,58.182 V 480 H 312 V 392 A 56.064,56.064 0 0 0 256,336 Z M 296,54.556 264,49.223 V 33.444 l 32,5.333 z M 48,160 H 160 V 480 H 48 Z M 464,480 H 352 V 160 h 112 z" />
  </g>
</svg>
