<?xml version="1.0" encoding="UTF-8" standalone="no"?>
<svg
   xmlns:dc="http://purl.org/dc/elements/1.1/"
   xmlns:cc="http://creativecommons.org/ns#"
   xmlns:rdf="http://www.w3.org/1999/02/22-rdf-syntax-ns#"
   xmlns:svg="http://www.w3.org/2000/svg"
   xmlns="http://www.w3.org/2000/svg"
   xmlns:sodipodi="http://sodipodi.sourceforge.net/DTD/sodipodi-0.dtd"
   xmlns:inkscape="http://www.inkscape.org/namespaces/inkscape"
   width="16"
   height="16"
   viewBox="0 0 4.2333333 4.2333333"
   version="1.1"
   id="svg8"
   sodipodi:docname="publictap_partially.svg"
   inkscape:version="1.0 (4035a4f, 2020-05-01)">
  <defs
     id="defs18" />
  <sodipodi:namedview
     inkscape:document-rotation="0"
     pagecolor="#ffffff"
     bordercolor="#666666"
     borderopacity="1"
     objecttolerance="10"
     gridtolerance="10"
     guidetolerance="10"
     inkscape:pageopacity="0"
     inkscape:pageshadow="2"
     inkscape:window-width="1401"
     inkscape:window-height="953"
     id="namedview16"
     showgrid="false"
     inkscape:zoom="23.048725"
     inkscape:cx="8.4334477"
     inkscape:cy="9.3424956"
     inkscape:window-x="1495"
     inkscape:window-y="34"
     inkscape:window-maximized="0"
     inkscape:current-layer="svg8" />
  <metadata
     id="metadata5">
    <rdf:RDF>
      <cc:Work
         rdf:about="">
        <dc:format>image/svg+xml</dc:format>
        <dc:type
           rdf:resource="http://purl.org/dc/dcmitype/StillImage" />
        <dc:title></dc:title>
      </cc:Work>
    </rdf:RDF>
  </metadata>
  <path
     id="path843"
     style="fill:#ffff00;stroke:#000001;stroke-width:0.0518044"
     d="M 4.2036328,2.1166666 A 2.0869663,2.0812066 0 0 1 2.1166666,4.1978731 2.0869663,2.0812066 0 0 1 0.02970028,2.1166666 2.0869663,2.0812066 0 0 1 2.1166666,0.03546 2.0869663,2.0812066 0 0 1 4.2036328,2.1166666 Z" />
  <path
     style="stroke-width:0.00577206"
     id="path1082"
     d="m 3.4276187,2.391421 v -0.12923 c 0,-0.024009 -0.019309,-0.043459 -0.043124,-0.043459 -0.023815,0 -0.043123,0.019452 -0.043123,0.043459 V 2.3913857 H 2.9273951 V 2.0044731 c 0,-0.058246 -0.047021,-0.1056342 -0.1048173,-0.1056342 H 2.633068 V 1.4816316 h 0.3644732 c 0.1895905,0 0.3438323,0.1554443 0.3438323,0.3465137 V 2.059382 c 0,0.024001 0.019309,0.043459 0.043124,0.043459 0.023814,0 0.043123,-0.019459 0.043123,-0.043459 V 1.8281453 c 0,-0.2389959 -0.192931,-0.4334316 -0.4300774,-0.4334316 H 2.6221434 C 2.5937048,1.3081893 2.5127209,1.245568 2.4174544,1.245568 H 2.2744649 V 1.0809796 c 0.058653,-0.00262 0.107249,-0.044751 0.120186,-0.1005758 h 0.4321244 c 0.081008,3.5888e-4 0.149492,-0.0688911 0.149492,-0.15065797 0,-0.0830711 -0.067066,-0.15065798 -0.149492,-0.15065798 H 2.3946451 C 2.3812827,0.62144957 2.3299036,0.57837855 2.2686978,0.57837855 h -0.281022 c -0.061206,0 -0.1125846,0.0430706 -0.1259464,0.1007092 H 1.4295988 c -0.081824,-4.3774e-4 -0.149492,0.0684738 -0.149492,0.15065797 0,0.0830711 0.067066,0.15065798 0.149492,0.15065798 h 0.4321239 c 0.012937,0.0558251 0.061533,0.097969 0.120186,0.1005757 V 1.2455677 H 1.8389189 c -0.095273,0 -0.1762512,0.062622 -0.2046895,0.1491453 H 1.3100623 C 1.2922623,1.344132 1.2443313,1.3078 1.1881171,1.3078 c -0.056215,0 -0.1041452,0.036334 -0.1219453,0.086913 H 0.61314162 c -0.0238147,0 -0.0431227,0.019459 -0.0431227,0.043458 0,0.024001 0.0193091,0.043459 0.0431227,0.043459 H 1.0587433 V 1.8988372 H 0.61314162 c -0.0238147,0 -0.0431227,0.01946 -0.0431227,0.043458 0,0.024001 0.0193091,0.043458 0.0431227,0.043458 H 1.0661602 c 0.0178,0.050585 0.065731,0.086924 0.1219503,0.086924 0.056222,0 0.1041553,-0.036337 0.1219503,-0.086924 h 0.3241564 c 0.028431,0.086536 0.1094165,0.1491637 0.2046952,0.1491637 h 0.072912 c 0.023815,0 0.043124,-0.019452 0.043124,-0.043458 0,-0.024001 -0.019309,-0.043458 -0.043124,-0.043458 h -0.072907 c -0.064569,0 -0.1182301,-0.04792 -0.1278328,-0.1103231 -1.75e-5,-1.62e-4 -5.22e-5,-3.128e-4 -6.94e-5,-4.776e-4 0.00174,-0.00799 -0.00174,-0.4787911 1.13e-5,-0.4940366 1.16e-5,-9.21e-5 2.82e-5,-1.795e-4 4.11e-5,-2.724e-4 0.00957,-0.062447 0.063254,-0.110415 0.1278498,-0.110415 h 0.5785342 c 0.064603,0 0.1182876,0.047967 0.1278497,0.110415 1.15e-5,9.21e-5 2.84e-5,1.795e-4 4.15e-5,2.724e-4 0.00667,0.057829 0.00583,0.4433577 1.15e-5,0.4940366 -1.74e-5,1.555e-4 -5.65e-5,3.129e-4 -6.96e-5,4.776e-4 -0.0096,0.062401 -0.063264,0.1103231 -0.1278328,0.1103231 H 2.1130711 c -0.023815,0 -0.043122,0.01946 -0.043122,0.043458 0,0.024009 0.019309,0.043458 0.043122,0.043458 h 0.3043833 c 0.095278,0 0.1762628,-0.062628 0.2046947,-0.1491637 h 0.2004288 c 0.010245,0 0.01857,0.0084 0.01857,0.018715 v 0.3869503 c -0.047619,3.766e-4 -0.086245,0.0395 -0.086245,0.087572 v 0.085534 c 0,0.048309 0.039002,0.087613 0.086934,0.087613 h 0.5850898 c 0.047936,0 0.086936,-0.039305 0.086936,-0.087613 v -0.085532 c 0,-0.048071 -0.038626,-0.087196 -0.086244,-0.087573 z M 2.3980662,0.76600584 h 0.4287093 c 0.03487,0 0.063247,0.028596 0.063247,0.0637405 0,0.0344909 -0.028873,0.0639139 -0.063247,0.063739 H 2.3980662 Z M 1.8583076,0.89348531 H 1.4295988 c -0.03487,0 -0.063247,-0.028596 -0.063247,-0.063739 0,-0.0346856 0.028778,-0.063897 0.063247,-0.0637405 H 1.8583076 Z M 1.2312343,1.9423035 c 0,0.023964 -0.019341,0.043458 -0.043124,0.043458 -0.023779,0 -0.043121,-0.019491 -0.043121,-0.043458 V 1.4381783 c 0,-0.023964 0.019341,-0.043458 0.043121,-0.043458 0.023782,0 0.043124,0.019491 0.043124,0.043458 z m 0.392072,-0.043465 H 1.3174797 V 1.4816316 H 1.6233063 Z M 2.1882197,1.245568 H 2.0681545 V 1.0811304 H 2.1882202 Z M 1.9876758,0.99421249 c -0.023779,0 -0.043123,-0.0194916 -0.043123,-0.0434588 V 0.70875645 c 0,-0.0239641 0.019341,-0.0434588 0.043123,-0.0434588 h 0.281022 c 0.023782,0 0.043124,0.0194917 0.043124,0.0434588 v 0.24199727 c 0,0.0239686 -0.019341,0.0434588 -0.043124,0.0434588 z M 3.4276187,2.564527 c 0,3.825e-4 -3.107e-4,6.766e-4 -6.712e-4,6.766e-4 H 2.8418579 c -3.803e-4,0 -7.108e-4,-3.128e-4 -7.108e-4,-6.766e-4 V 2.478993 c 0,-3.764e-4 3.108e-4,-6.764e-4 7.108e-4,-6.764e-4 h 0.5850896 c 3.801e-4,0 6.712e-4,3.131e-4 6.712e-4,6.764e-4 z M 3.1768054,2.8025086 c -0.023397,-0.023299 -0.061454,-0.023299 -0.084836,-1.15e-5 -0.081417,0.081049 -0.2707824,0.2849118 -0.2707824,0.4271563 0,0.1739807 0.1405005,0.3155301 0.3131977,0.3155301 0.1726978,0 0.3131977,-0.1415489 0.3131977,-0.3155301 0,-0.1422439 -0.1893661,-0.3461078 -0.270777,-0.4271448 z m -0.04242,0.655757 c -0.1251423,0 -0.2269521,-0.1025519 -0.2269521,-0.2286122 0,-0.054028 0.059884,-0.1764205 0.2269521,-0.346983 0.167087,0.170568 0.2269519,0.2929489 0.2269519,0.346983 0,0.1260603 -0.1018101,0.2286122 -0.2269519,0.2286122 z" />
</svg>
