<?xml version="1.0" encoding="UTF-8" standalone="no"?>
<svg
   xmlns:dc="http://purl.org/dc/elements/1.1/"
   xmlns:cc="http://creativecommons.org/ns#"
   xmlns:rdf="http://www.w3.org/1999/02/22-rdf-syntax-ns#"
   xmlns:svg="http://www.w3.org/2000/svg"
   xmlns="http://www.w3.org/2000/svg"
   xmlns:sodipodi="http://sodipodi.sourceforge.net/DTD/sodipodi-0.dtd"
   xmlns:inkscape="http://www.inkscape.org/namespaces/inkscape"
   width="16"
   height="16"
   viewBox="0 0 4.2333333 4.2333333"
   version="1.1"
   id="svg8"
   sodipodi:docname="waterkiosk.svg"
   inkscape:version="1.0 (4035a4f, 2020-05-01)">
  <defs
     id="defs18" />
  <sodipodi:namedview
     inkscape:document-rotation="0"
     pagecolor="#ffffff"
     bordercolor="#666666"
     borderopacity="1"
     objecttolerance="10"
     gridtolerance="10"
     guidetolerance="10"
     inkscape:pageopacity="0"
     inkscape:pageshadow="2"
     inkscape:window-width="1401"
     inkscape:window-height="953"
     id="namedview16"
     showgrid="false"
     inkscape:zoom="19.150026"
     inkscape:cx="5.0135244"
     inkscape:cy="10.066192"
     inkscape:window-x="1495"
     inkscape:window-y="34"
     inkscape:window-maximized="0"
     inkscape:current-layer="svg8" />
  <metadata
     id="metadata5">
    <rdf:RDF>
      <cc:Work
         rdf:about="">
        <dc:format>image/svg+xml</dc:format>
        <dc:type
           rdf:resource="http://purl.org/dc/dcmitype/StillImage" />
        <dc:title></dc:title>
      </cc:Work>
    </rdf:RDF>
  </metadata>
  <path
     id="path843"
     style="fill:#ffffff;stroke:#000001;stroke-width:0.0518044"
     d="M 4.2036328,2.1166666 A 2.0869663,2.0812066 0 0 1 2.1166666,4.1978731 2.0869663,2.0812066 0 0 1 0.02970028,2.1166666 2.0869663,2.0812066 0 0 1 2.1166666,0.03546 2.0869663,2.0812066 0 0 1 4.2036328,2.1166666 Z" />
  <g
     transform="matrix(0.00601767,0,0,0.00543072,0.55968792,0.61680472)"
     id="g1219">
    <g
       id="g1153">
	<g
   id="g1151">
		<path
   d="M 512,358.497 V 328.498 H 484.334 V 223.909 c 16.679,-13.806 27.322,-34.657 27.322,-57.949 V 137.006 L 446.158,19.172 H 65.878 L 0,136.986 v 28.974 c 0,23.292 10.645,44.143 27.322,57.949 v 104.59 H 0.01 v 29.999 H 27.322 V 462.829 H 0.01 v 29.999 H 511.999 V 462.829 H 484.333 V 358.497 Z m -83.489,-309.326 51.696,93.004 h -88.965 -1.219 L 370.482,49.171 Z m -157.683,0 h 69 l 19.54,93.004 H 270.829 V 49.171 Z m 89.988,123.003 c -3.036,21.999 -21.962,38.993 -44.781,38.993 -22.819,0 -41.745,-16.995 -44.781,-38.993 z m -104.988,38.805 c 13.73,18.315 35.607,30.187 60.207,30.187 24.6,0 46.477,-11.873 60.207,-30.187 4.036,5.383 8.787,10.195 14.094,14.328 V 328.499 H 121.676 V 225.028 c 5.163,-4.07 9.794,-8.786 13.74,-14.049 13.73,18.315 35.607,30.187 60.207,30.187 24.597,0.001 46.475,-11.872 60.205,-30.187 z M 181.774,49.171 h 59.055 v 93.004 H 153.35 Z m 58.629,123.003 c -3.037,21.999 -21.962,38.993 -44.782,38.993 -22.82,0 -41.745,-16.995 -44.781,-38.993 z M 83.474,49.171 h 66.931 L 121.98,142.175 H 120.415 31.469 Z M 30.425,172.174 h 89.563 c -3.037,21.999 -21.961,38.993 -44.782,38.993 -22.82,0 -41.745,-16.994 -44.781,-38.993 z m 61.25,67.155 v 89.169 H 57.322 V 239 c 5.737,1.406 11.722,2.167 17.885,2.167 5.657,0 11.164,-0.648 16.468,-1.838 z M 454.334,462.828 H 57.322 V 358.497 h 397.012 z m 0,-134.33 H 420.335 V 239.41 c 5.195,1.139 10.583,1.757 16.115,1.757 6.163,0 12.148,-0.761 17.885,-2.167 v 89.498 z M 436.45,211.167 c -22.82,0 -41.746,-16.995 -44.782,-38.993 h 89.563 c -3.036,21.999 -21.962,38.993 -44.781,38.993 z"
   id="path1149" />

	</g>

</g>
    <g
       id="g1159">
	<g
   id="g1157">
		<path
   d="M 186.67599,395.16199 H 325.343 v 29.999 H 186.67599 Z"
   id="rect1155" />

	</g>

</g>
    <g
       id="g1161">
</g>
    <g
       id="g1163">
</g>
    <g
       id="g1165">
</g>
    <g
       id="g1167">
</g>
    <g
       id="g1169">
</g>
    <g
       id="g1171">
</g>
    <g
       id="g1173">
</g>
    <g
       id="g1175">
</g>
    <g
       id="g1177">
</g>
    <g
       id="g1179">
</g>
    <g
       id="g1181">
</g>
    <g
       id="g1183">
</g>
    <g
       id="g1185">
</g>
    <g
       id="g1187">
</g>
    <g
       id="g1189">
</g>
  </g>
</svg>
